# xmcd
#
# Track frame offsets:
#	151
#	7642
#	22147
#	37448
#	54318
#	57252
#	76489
#	95273
#	110681
#	128557
#	130621
#	140861
#	143480
#	158118
#	176760
#	197559
#	215753
#	235822
#
# Disc length: 3383 seconds
#
# Revision: 6
# Processed by: cddbd v1.5.2PL0 Copyright (c) Steve Scherf et al.
# Submitted via: EasyCDDAExtractor 11.9.9.666
#
DISCID=fa0d3512
DTITLE=Afu-Ra - Body Of The Life Force
DYEAR=2000
DGENRE=Hip Hop US
TTITLE0=Intro - Asun The Black Sun
TTITLE1=Soul Assassination
TTITLE2=Defeat
TTITLE3=Bigacts Littleacts Ft. GZA
TTITLE4=Quotations
TTITLE5=D&D Soundclash Ft. Cocoa Brovas and Jahdan
TTITLE6=Mic Stance
TTITLE7=Caliente Ft. Rasheedah
TTITLE8=All That Ft. Krumbsnatcha and Hannibal Stax (aka Forbidden Fruit)
TTITLE9=Headqcuarterz Skit
TTITLE10=Self Mastery
TTITLE11=Visions Skit
TTITLE12=Mortal Kombat Ft. Masta Killa
TTITLE13=Warfare Ft. M.O.P.
TTITLE14=Equality Ft. Ky-Mani Marley
TTITLE15=Monotony
TTITLE16=Bring it Right (RIP Big L)
TTITLE17=Whirlwind Thru Cities
EXTD=YEAR: 2000
EXTT0=
EXTT1=
EXTT2=
EXTT3=
EXTT4=
EXTT5=
EXTT6=
EXTT7=
EXTT8=
EXTT9=
EXTT10=
EXTT11=
EXTT12=
EXTT13=
EXTT14=
EXTT15=
EXTT16=
EXTT17=
PLAYORDER=
